<svg width="11" height="11" viewBox="0 0 11 11" fill="none" xmlns="http://www.w3.org/2000/svg">
<path d="M4.17587 4.91227C4.17587 4.34381 4.17587 3.8628 4.17587 3.3818C4.19045 2.66758 4.51112 2.25945 5.065 2.30318C5.75007 2.34691 5.93956 2.81334 5.92498 3.42552C5.91041 3.89195 5.92498 4.34381 5.92498 4.92685C6.46429 4.92685 6.98903 4.92685 7.51376 4.92685C8.11137 4.92685 8.53407 5.16006 8.53407 5.8014C8.53407 6.42817 8.11137 6.67596 7.51376 6.67596C7.0036 6.67596 6.50802 6.67596 5.92498 6.67596C5.92498 7.18611 5.92498 7.63797 5.92498 8.1044C5.92498 8.8915 5.63346 9.28505 5.065 9.29962C4.48197 9.3142 4.17587 8.8915 4.17587 8.06067C4.17587 7.62339 4.17587 7.20069 4.17587 6.67596C3.60741 6.67596 3.08268 6.69053 2.55794 6.67596C1.9166 6.66138 1.52305 6.29698 1.56678 5.77225C1.61051 5.16006 1.98948 4.91227 2.54337 4.91227C3.05353 4.91227 3.56368 4.91227 4.17587 4.91227Z" fill="#052C54"/>
</svg>
