<svg width="11" height="11" viewBox="0 0 11 11" fill="none" xmlns="http://www.w3.org/2000/svg">
<rect x="0.220093" y="0.5" width="10" height="10" rx="5" fill="#052C54"/>
<path d="M5.23055 4.25505C5.63251 3.85309 5.97263 3.51297 6.31276 3.17284C6.82809 2.67812 7.34343 2.61628 7.70417 3.03886C8.15766 3.55419 7.96183 4.018 7.51864 4.44057C7.17852 4.76008 6.86932 5.0899 6.45705 5.50217C6.8384 5.88351 7.20944 6.25456 7.58049 6.6256C8.00306 7.04818 8.13705 7.51198 7.68355 7.96548C7.24036 8.40867 6.76625 8.28498 6.34368 7.86241C5.98294 7.50167 5.63251 7.15124 5.22024 6.73897C4.85951 7.09971 4.54 7.41922 4.21018 7.74903C3.65362 8.3056 3.1692 8.37775 2.75693 7.98609C2.33436 7.58413 2.41681 7.06879 3.00429 6.48131C3.3135 6.1721 3.61239 5.87321 3.98343 5.50217C3.58147 5.1002 3.20012 4.73947 2.83939 4.35812C2.3962 3.89431 2.37558 3.35836 2.77755 3.01824C3.24135 2.61628 3.68454 2.70904 4.07619 3.1007C4.43693 3.46143 4.79767 3.82217 5.23055 4.25505Z" fill="white"/>
</svg>
